{
  "accessors": [
    {
      "bufferView": 2,
      "componentType": 5126,
      "count": 18921,
      "max": [
        1.7351948022842407,
        0.9904078841209412,
        0.9035071134567261
      ],
      "min": [
        -1.676069736480713,
        -0.9904127717018127,
        -0.7187039256095886
      ],
      "type": "VEC3"
    },
    {
      "bufferView": 2,
      "byteOffset": 227052,
      "componentType": 5126,
      "count": 18921,
      "max": [
        0.9998347759246826,
        0.999995231628418,
        0.9997086524963379
      ],
      "min": [
        -0.9998347759246826,
        -0.999995231628418,
        -0.9966636896133423
      ],
      "type": "VEC3"
    },
    {
      "bufferView": 1,
      "componentType": 5126,
      "count": 18921,
      "max": [
        1.005029559135437,
        0.9925941228866577
      ],
      "min": [
        0.01612401194870472,
        0.010805101133883
      ],
      "type": "VEC2"
    },
    {
      "bufferView": 0,
      "componentType": 5125,
      "count": 99120,
      "type": "SCALAR"
    },
    {
      "bufferView": 2,
      "byteOffset": 454104,
      "componentType": 5126,
      "count": 1876,
      "max": [
        0.6449965238571167,
        0.6387137770652771,
        1.539863109588623
      ],
      "min": [
        -0.6449964046478271,
        -0.6387138962745667,
        0.7429598569869995
      ],
      "type": "VEC3"
    },
    {
      "bufferView": 2,
      "byteOffset": 476616,
      "componentType": 5126,
      "count": 1876,
      "max": [
        1.0,
        1.0,
        0.9999816417694092
      ],
      "min": [
        -1.0,
        -1.0,
        -0.9992714524269104
      ],
      "type": "VEC3"
    },
    {
      "bufferView": 1,
      "byteOffset": 151368,
      "componentType": 5126,
      "count": 1876,
      "max": [
        0.9989802241325378,
        0.9767415523529053
      ],
      "min": [
        0.004705101251602173,
        0.022816933691501617
      ],
      "type": "VEC2"
    },
    {
      "bufferView": 0,
      "byteOffset": 396480,
      "componentType": 5125,
      "count": 9060,
      "type": "SCALAR"
    },
    {
      "bufferView": 2,
      "byteOffset": 499128,
      "componentType": 5126,
      "count": 381,
      "max": [
        0.6556963920593262,
        0.6671323776245117,
        -0.7182352542877197
      ],
      "min": [
        -0.6556969285011292,
        -0.6671324372291565,
        -0.8427972793579102
      ],
      "type": "VEC3"
    },
    {
      "bufferView": 2,
      "byteOffset": 503700,
      "componentType": 5126,
      "count": 381,
      "max": [
        0.9614555239677429,
        0.9626253843307495,
        0.830996036529541
      ],
      "min": [
        -0.9614582061767578,
        -0.9626255631446838,
        -0.2910892367362976
      ],
      "type": "VEC3"
    },
    {
      "bufferView": 1,
      "byteOffset": 166376,
      "componentType": 5126,
      "count": 381,
      "max": [
        0.9936133623123169,
        0.9970402121543884
      ],
      "min": [
        0.7155908346176147,
        0.609646201133728
      ],
      "type": "VEC2"
    },
    {
      "bufferView": 0,
      "byteOffset": 432720,
      "componentType": 5125,
      "count": 954,
      "type": "SCALAR"
    }
  ],
  "asset": {
    "extras": {
      "author": "vigerium (https://sketchfab.com/vigerium)",
      "license": "CC-BY-4.0 (http://creativecommons.org/licenses/by/4.0/)",
      "source": "https://sketchfab.com/3d-models/teapot-28d49c6d77f6414a929c4a2f47ebefbf",
      "title": "teapot"
    },
    "generator": "Sketchfab-16.65.0",
    "version": "2.0"
  },
  "bufferViews": [
    {
      "buffer": 0,
      "byteLength": 436536,
      "name": "floatBufferViews",
      "target": 34963
    },
    {
      "buffer": 0,
      "byteLength": 169424,
      "byteOffset": 436536,
      "byteStride": 8,
      "name": "floatBufferViews",
      "target": 34962
    },
    {
      "buffer": 0,
      "byteLength": 508272,
      "byteOffset": 605960,
      "byteStride": 12,
      "name": "floatBufferViews",
      "target": 34962
    }
  ],
  "buffers": [
    {
      "byteLength": 1114232,
      "uri": "scene.bin"
    }
  ],
  "extensionsUsed": [
    "KHR_materials_specular"
  ],
  "images": [
    {
      "uri": "textures/Material.001_baseColor.png"
    }
  ],
  "materials": [
    {
      "doubleSided": true,
      "extensions": {
        "KHR_materials_specular": {
          "specularColorFactor": [
            1.0,
            1.0,
            1.0
          ],
          "specularFactor": 0.7345305074500171
        }
      },
      "name": "Material.001",
      "pbrMetallicRoughness": {
        "baseColorTexture": {
          "index": 0
        },
        "metallicFactor": 0.29727380740204046,
        "roughnessFactor": 0.16222832726087721
      }
    }
  ],
  "meshes": [
    {
      "name": "Sphere_Material.001_0",
      "primitives": [
        {
          "attributes": {
            "NORMAL": 1,
            "POSITION": 0,
            "TEXCOORD_0": 2
          },
          "indices": 3,
          "material": 0,
          "mode": 4
        }
      ]
    },
    {
      "name": "Sphere.001_Material.001_0",
      "primitives": [
        {
          "attributes": {
            "NORMAL": 5,
            "POSITION": 4,
            "TEXCOORD_0": 6
          },
          "indices": 7,
          "material": 0,
          "mode": 4
        }
      ]
    },
    {
      "name": "Sphere.002_Material.001_0",
      "primitives": [
        {
          "attributes": {
            "NORMAL": 9,
            "POSITION": 8,
            "TEXCOORD_0": 10
          },
          "indices": 11,
          "material": 0,
          "mode": 4
        }
      ]
    }
  ],
  "nodes": [
    {
      "children": [
        1
      ],
      "matrix": [
        1.0,
        2.8327693431939995e-16,
        -1.6081226229577284e-16,
        0.0,
        -1.6081226229577292e-16,
        5.053215392444312e-16,
        -1.0,
        0.0,
        -2.832769343193999e-16,
        1.0,
        5.053215392444312e-16,
        0.0,
        0.0,
        0.0,
        0.0,
        1.0
      ],
      "name": "Sketchfab_model"
    },
    {
      "children": [
        2
      ],
      "matrix": [
        0.009999999776482582,
        0.0,
        0.0,
        0.0,
        0.0,
        0.0,
        0.009999999776482582,
        0.0,
        0.0,
        -0.009999999776482582,
        0.0,
        0.0,
        0.0,
        0.0,
        0.0,
        1.0
      ],
      "name": "d743acc2c16f4106a131578fd7ee767a.fbx"
    },
    {
      "children": [
        3,
        5,
        8,
        10,
        12,
        14
      ],
      "name": "RootNode"
    },
    {
      "children": [
        4
      ],
      "matrix": [
        0.009838353309262126,
        -6.693089290653694,
        -99.77576852539451,
        0.0,
        0.4187053434994043,
        99.77489715641845,
        -6.692989551793138,
        0.0,
        99.9991153121707,
        -0.417107898905935,
        0.037840520740349846,
        0.0,
        9.604994773864746,
        183.2085418701172,
        783.4501953125,
        1.0
      ],
      "name": "Camera"
    },
    {
      "name": "Object_4"
    },
    {
      "children": [
        6
      ],
      "matrix": [
        -1749515641.2376318,
        -4118821439.896279,
        -1201286199.2737732,
        -0.0,
        1553924853.1145446,
        -653511571.0587578,
        -22407953.86723576,
        -0.0,
        233416620.40708157,
        642172450.3020003,
        -2541742081.601789,
        -0.0,
        -318.53204345703125,
        328.3380432128906,
        119.4896469116211,
        1.0
      ],
      "name": "Point"
    },
    {
      "children": [
        7
      ],
      "matrix": [
        1.0,
        0.0,
        0.0,
        0.0,
        0.0,
        2.220446049250313e-16,
        1.0,
        0.0,
        0.0,
        -1.0,
        2.220446049250313e-16,
        0.0,
        0.0,
        0.0,
        0.0,
        1.0
      ],
      "name": "Object_6"
    },
    {
      "name": "Object_7"
    },
    {
      "children": [
        9
      ],
      "matrix": [
        101.18674382820943,
        -1.3577986861780358e-06,
        31.842312636920333,
        0.0,
        30.01763398817261,
        1.9067921508783545e-05,
        -95.38838071605319,
        0.0,
        -4.776484640053278e-06,
        106.07869720458791,
        1.9701786427450295e-05,
        0.0,
        0.0,
        90.94451904296875,
        -29.343324661254883,
        1.0
      ],
      "name": "Sphere"
    },
    {
      "mesh": 0,
      "name": "Sphere_Material.001_0"
    },
    {
      "children": [
        11
      ],
      "matrix": [
        101.18674382820943,
        -1.3577986861780358e-06,
        31.842312636920333,
        0.0,
        30.01763398817261,
        1.9067921508783545e-05,
        -95.38838071605319,
        0.0,
        -4.776484640053278e-06,
        106.07869720458791,
        1.9701786427450295e-05,
        0.0,
        0.0,
        90.94451904296875,
        -29.343324661254883,
        1.0
      ],
      "name": "Sphere.001"
    },
    {
      "mesh": 1,
      "name": "Sphere.001_Material.001_0"
    },
    {
      "children": [
        13
      ],
      "matrix": [
        101.18674382820943,
        -1.3577986861780358e-06,
        31.842312636920333,
        0.0,
        30.01763398817261,
        1.9067921508783545e-05,
        -95.38838071605319,
        0.0,
        -4.776484640053278e-06,
        106.07869720458791,
        1.9701786427450295e-05,
        0.0,
        0.0,
        90.94451904296875,
        -29.343324661254883,
        1.0
      ],
      "name": "Sphere.002"
    },
    {
      "mesh": 2,
      "name": "Sphere.002_Material.001_0"
    },
    {
      "children": [
        15
      ],
      "matrix": [
        69.02454951246204,
        420.81275962123135,
        -146.850407207345,
        0.0,
        22.22652129527031,
        31.394219693353737,
        100.4100984489,
        0.0,
        202.6983805940411,
        -44.094651941220945,
        -31.082159370990954,
        0.0,
        70.3328857421875,
        261.60174560546875,
        608.0617065429688,
        1.0
      ],
      "name": "Sun"
    },
    {
      "children": [
        16
      ],
      "matrix": [
        1.0,
        0.0,
        0.0,
        0.0,
        0.0,
        2.220446049250313e-16,
        1.0,
        0.0,
        0.0,
        -1.0,
        2.220446049250313e-16,
        0.0,
        0.0,
        0.0,
        0.0,
        1.0
      ],
      "name": "Object_15"
    },
    {
      "name": "Object_16"
    }
  ],
  "samplers": [
    {
      "magFilter": 9729,
      "minFilter": 9987,
      "wrapS": 10497,
      "wrapT": 10497
    }
  ],
  "scene": 0,
  "scenes": [
    {
      "name": "Sketchfab_Scene",
      "nodes": [
        0
      ]
    }
  ],
  "textures": [
    {
      "sampler": 0,
      "source": 0
    }
  ]
}
